<svg width="28" height="28" viewBox="0 0 28 28" fill="none" xmlns="http://www.w3.org/2000/svg">
<g clip-path="url(#clip0_404_8536)">
<mask id="mask0_404_8536" style="mask-type:luminance" maskUnits="userSpaceOnUse" x="0" y="0" width="28" height="28">
<path d="M28 0H0V28H28V0Z" fill="white"/>
</mask>
<g mask="url(#mask0_404_8536)">
<path d="M14 28C21.732 28 28 21.732 28 14C28 6.26801 21.732 0 14 0C6.26801 0 0 6.26801 0 14C0 21.732 6.26801 28 14 28Z" fill="#EDF4F3"/>
<path d="M14.0001 13.1667C16.2552 13.1667 18.0834 11.3385 18.0834 9.08333C18.0834 6.82817 16.2552 5 14.0001 5C11.7449 5 9.91675 6.82817 9.91675 9.08333C9.91675 11.3385 11.7449 13.1667 14.0001 13.1667Z" fill="#1F4B2C"/>
<path d="M5.83325 19.5837C5.83325 17.0063 7.92258 14.917 10.4999 14.917H17.4999C20.0773 14.917 22.1666 17.0063 22.1666 19.5837V20.7503C22.1666 22.039 21.1219 23.0837 19.8333 23.0837H8.16659C6.87794 23.0837 5.83325 22.039 5.83325 20.7503V19.5837Z" fill="#1F4B2C"/>
</g>
</g>
<defs>
<clipPath id="clip0_404_8536">
<rect width="28" height="28" fill="white"/>
</clipPath>
</defs>
</svg>
