<svg width="41" height="41" viewBox="0 0 41 41" fill="none" xmlns="http://www.w3.org/2000/svg">
<circle cx="11" cy="11" r="11" fill="url(#paint0_linear_383_8528)"/>
<path d="M24.5 8C33.6126 8.0001 41 15.3874 41 24.5C41 24.607 40.9971 24.7138 40.9951 24.8203C40.8992 19.3804 36.4628 15 31 15C25.4772 15 21 19.4772 21 25C21 30.5228 25.4772 35 31 35C35.9458 35 40.0492 31.4089 40.8535 26.6924C39.7812 34.7685 32.8692 40.9999 24.5 41C15.3873 41 8 33.6127 8 24.5C8 15.3873 15.3873 8 24.5 8Z" fill="url(#paint1_linear_383_8528)"/>
<defs>
<linearGradient id="paint0_linear_383_8528" x1="11" y1="0" x2="11" y2="22" gradientUnits="userSpaceOnUse">
<stop stop-color="#E3EA8F"/>
<stop offset="1" stop-color="#62AA1B"/>
</linearGradient>
<linearGradient id="paint1_linear_383_8528" x1="24.4964" y1="8.00586" x2="24.4964" y2="41.0048" gradientUnits="userSpaceOnUse">
<stop stop-color="#E3EA8F"/>
<stop offset="1" stop-color="#62AA1B"/>
</linearGradient>
</defs>
</svg>
