<svg width="86" height="24" viewBox="0 0 86 24" fill="none" xmlns="http://www.w3.org/2000/svg">
<circle cx="6.42857" cy="6.42857" r="6.42857" fill="url(#paint0_linear_62_2897)"/>
<path d="M14.1431 4.28613C19.5869 4.28628 23.9995 8.6997 23.9995 14.1436C23.9995 14.2154 23.9952 14.2869 23.9937 14.3584C23.8812 11.1436 21.2417 8.57227 17.9995 8.57227C14.686 8.5725 11.9995 11.2587 11.9995 14.5723C11.9997 17.8857 14.6861 20.572 17.9995 20.5723C20.7915 20.5723 23.1375 18.6646 23.8071 16.082C22.9063 20.5973 18.9231 23.9999 14.1431 24C8.69921 24 4.2858 19.5874 4.28564 14.1436C4.28564 8.69961 8.69912 4.28613 14.1431 4.28613Z" fill="url(#paint1_linear_62_2897)"/>
<path d="M32.98 7.01H41.296V8.9H35.43V11.574H41.016V13.464H35.43V18H32.98V7.01ZM48.1783 12.974C48.0383 12.7687 47.8236 12.5773 47.5343 12.4C47.2543 12.2133 46.9183 12.12 46.5263 12.12C45.957 12.12 45.4903 12.3113 45.1263 12.694C44.7623 13.0767 44.5803 13.5853 44.5803 14.22C44.5803 14.8547 44.7623 15.3633 45.1263 15.746C45.4903 16.1287 45.957 16.32 46.5263 16.32C46.9183 16.32 47.259 16.2313 47.5483 16.054C47.8376 15.8767 48.0476 15.6807 48.1783 15.466V12.974ZM48.2063 10.44H50.5583V18H48.2623V16.908C48.1036 17.2907 47.8003 17.6033 47.3523 17.846C46.9043 18.0887 46.3816 18.21 45.7843 18.21C45.243 18.21 44.753 18.112 44.3143 17.916C43.8756 17.7107 43.4976 17.4307 43.1803 17.076C42.8723 16.7213 42.6296 16.3013 42.4523 15.816C42.2843 15.3307 42.2003 14.7987 42.2003 14.22C42.2003 13.6507 42.2843 13.1233 42.4523 12.638C42.6296 12.1433 42.8723 11.7187 43.1803 11.364C43.4976 11.0093 43.8756 10.734 44.3143 10.538C44.753 10.3327 45.243 10.23 45.7843 10.23C46.3536 10.23 46.839 10.342 47.2403 10.566C47.651 10.7807 47.973 11.0653 48.2063 11.42V10.44ZM54.6764 18L51.5404 10.44H53.8924L55.8384 15.466L57.7844 10.44H60.1364L57.0004 18H54.6764ZM63.01 14.22C63.01 14.528 63.052 14.8173 63.136 15.088C63.22 15.3493 63.3413 15.578 63.5 15.774C63.668 15.97 63.8687 16.124 64.102 16.236C64.3447 16.3387 64.62 16.39 64.928 16.39C65.236 16.39 65.5067 16.3387 65.74 16.236C65.9827 16.124 66.1833 15.97 66.342 15.774C66.51 15.578 66.636 15.3493 66.72 15.088C66.804 14.8173 66.846 14.528 66.846 14.22C66.846 13.912 66.804 13.6273 66.72 13.366C66.636 13.0953 66.51 12.862 66.342 12.666C66.1833 12.47 65.9827 12.3207 65.74 12.218C65.5067 12.106 65.236 12.05 64.928 12.05C64.62 12.05 64.3447 12.106 64.102 12.218C63.8687 12.3207 63.668 12.47 63.5 12.666C63.3413 12.862 63.22 13.0953 63.136 13.366C63.052 13.6273 63.01 13.912 63.01 14.22ZM60.63 14.22C60.63 13.6227 60.7327 13.0813 60.938 12.596C61.1433 12.1013 61.4327 11.6813 61.806 11.336C62.1887 10.9813 62.6413 10.7107 63.164 10.524C63.696 10.328 64.284 10.23 64.928 10.23C65.572 10.23 66.1553 10.328 66.678 10.524C67.21 10.7107 67.6627 10.9813 68.036 11.336C68.4187 11.6813 68.7127 12.1013 68.918 12.596C69.1233 13.0813 69.226 13.6227 69.226 14.22C69.226 14.8173 69.1233 15.3633 68.918 15.858C68.7127 16.3433 68.4187 16.7633 68.036 17.118C67.6627 17.4633 67.21 17.734 66.678 17.93C66.1553 18.1167 65.572 18.21 64.928 18.21C64.284 18.21 63.696 18.1167 63.164 17.93C62.6413 17.734 62.1887 17.4633 61.806 17.118C61.4327 16.7633 61.1433 16.3433 60.938 15.858C60.7327 15.3633 60.63 14.8173 60.63 14.22ZM76.0174 12.274C75.8028 12.274 75.5601 12.2833 75.2894 12.302C75.0281 12.3207 74.7574 12.358 74.4774 12.414C74.2068 12.47 73.9454 12.554 73.6934 12.666C73.4508 12.7687 73.2454 12.9087 73.0774 13.086V18H70.6974V10.44H73.0074V11.672C73.1008 11.4387 73.2594 11.2333 73.4834 11.056C73.7074 10.8693 73.9594 10.7153 74.2394 10.594C74.5288 10.4727 74.8274 10.384 75.1354 10.328C75.4434 10.2627 75.7374 10.23 76.0174 10.23V12.274ZM77.7405 22.018L79.5885 17.832L76.3685 10.44H78.8185L80.6945 15.214L82.5705 10.44H84.9645L80.0645 22.018H77.7405Z" fill="white"/>
<defs>
<linearGradient id="paint0_linear_62_2897" x1="6.42857" y1="0" x2="6.42857" y2="12.8571" gradientUnits="userSpaceOnUse">
<stop stop-color="#E3EA8F"/>
<stop offset="1" stop-color="#62AA1B"/>
</linearGradient>
<linearGradient id="paint1_linear_62_2897" x1="13.4859" y1="4.68624" x2="13.4859" y2="24" gradientUnits="userSpaceOnUse">
<stop stop-color="#E3EA8F"/>
<stop offset="1" stop-color="#62AA1B"/>
</linearGradient>
</defs>
</svg>
