<svg width="62" height="97" viewBox="0 0 62 97" fill="none" xmlns="http://www.w3.org/2000/svg">
<path d="M3.87 79.93V83.53H10.656V85.69H3.87V91H1.17V77.77H11.016V79.93H3.87ZM18.2914 91V90.046C17.9674 90.418 17.5594 90.718 17.0674 90.946C16.5874 91.162 16.0534 91.27 15.4654 91.27C14.2894 91.27 13.3894 90.982 12.7654 90.406C12.1414 89.83 11.8294 89.038 11.8294 88.03C11.8294 87.454 11.9434 86.962 12.1714 86.554C12.3994 86.146 12.7114 85.816 13.1074 85.564C13.5154 85.3 13.9894 85.108 14.5294 84.988C15.0814 84.856 15.6754 84.778 16.3114 84.754L18.0214 84.7C17.9614 84.136 17.7814 83.74 17.4814 83.512C17.1814 83.284 16.8034 83.17 16.3474 83.17C15.7114 83.17 15.1294 83.26 14.6014 83.44C14.0854 83.62 13.6174 83.848 13.1974 84.124L12.3154 82.27C12.7714 81.958 13.3474 81.7 14.0434 81.496C14.7514 81.292 15.5614 81.19 16.4734 81.19C17.1094 81.19 17.6914 81.262 18.2194 81.406C18.7474 81.55 19.1974 81.766 19.5694 82.054C19.9414 82.342 20.2294 82.702 20.4334 83.134C20.6374 83.566 20.7394 84.07 20.7394 84.646V91H18.2914ZM15.8794 89.218C16.2634 89.218 16.6414 89.146 17.0134 89.002C17.3854 88.858 17.7274 88.648 18.0394 88.372V86.68L16.4194 86.752C15.8194 86.776 15.3514 86.914 15.0154 87.166C14.6914 87.406 14.5294 87.724 14.5294 88.12C14.5294 88.468 14.6494 88.738 14.8894 88.93C15.1294 89.122 15.4594 89.218 15.8794 89.218ZM25.3668 91L21.6408 81.46H24.2328L26.6988 88.264L29.1648 81.46H31.7568L28.0308 91H25.3668ZM34.92 86.23C34.92 87.142 35.136 87.85 35.568 88.354C36.012 88.858 36.6 89.11 37.332 89.11C38.064 89.11 38.652 88.858 39.096 88.354C39.552 87.85 39.78 87.142 39.78 86.23C39.78 85.318 39.552 84.61 39.096 84.106C38.652 83.602 38.064 83.35 37.332 83.35C36.6 83.35 36.012 83.602 35.568 84.106C35.136 84.61 34.92 85.318 34.92 86.23ZM32.22 86.23C32.22 85.462 32.34 84.772 32.58 84.16C32.832 83.536 33.18 83.008 33.624 82.576C34.08 82.132 34.62 81.79 35.244 81.55C35.868 81.31 36.564 81.19 37.332 81.19C38.1 81.19 38.796 81.31 39.42 81.55C40.056 81.79 40.596 82.132 41.04 82.576C41.496 83.008 41.85 83.536 42.102 84.16C42.354 84.772 42.48 85.462 42.48 86.23C42.48 86.998 42.354 87.694 42.102 88.318C41.85 88.93 41.496 89.458 41.04 89.902C40.596 90.334 40.056 90.67 39.42 90.91C38.796 91.15 38.1 91.27 37.332 91.27C36.564 91.27 35.868 91.15 35.244 90.91C34.62 90.67 34.08 90.334 33.624 89.902C33.18 89.458 32.832 88.93 32.58 88.318C32.34 87.694 32.22 86.998 32.22 86.23ZM50.659 83.692C50.335 83.56 49.981 83.464 49.597 83.404C49.213 83.332 48.805 83.332 48.373 83.404C48.097 83.452 47.827 83.548 47.563 83.692C47.299 83.836 47.089 84.016 46.933 84.232V91H44.197V81.46H46.645V82.612C46.849 82.216 47.143 81.904 47.527 81.676C47.923 81.436 48.325 81.286 48.733 81.226C48.949 81.202 49.171 81.196 49.399 81.208C49.639 81.208 49.873 81.226 50.101 81.262C50.329 81.298 50.545 81.352 50.749 81.424C50.953 81.484 51.127 81.556 51.271 81.64L50.659 83.692ZM52.8075 96.094L55.2555 90.496L51.2775 81.46H54.0135L56.5695 87.436L59.0535 81.46H61.7535L55.5075 96.094H52.8075Z" fill="#1F4B2C"/>
<circle cx="16.6341" cy="16.6341" r="16.6341" fill="url(#paint0_linear_73_2756)"/>
<path d="M37.0488 12.0977C50.8289 12.0977 62 23.2687 62 37.0488C62 37.1711 61.9969 37.2932 61.9951 37.415C61.7883 29.2436 55.0992 22.6826 46.8779 22.6826C38.5265 22.6827 31.756 29.4533 31.7559 37.8047C31.7559 46.1562 38.5264 52.9266 46.8779 52.9268C54.323 52.9268 60.5109 47.5465 61.7666 40.4619C60.1024 52.6272 49.6711 61.9999 37.0488 62C23.2687 62 12.0977 50.829 12.0977 37.0488C12.0977 23.2687 23.2687 12.0977 37.0488 12.0977Z" fill="url(#paint1_linear_73_2756)"/>
<defs>
<linearGradient id="paint0_linear_73_2756" x1="16.6341" y1="0" x2="16.6341" y2="33.2683" gradientUnits="userSpaceOnUse">
<stop stop-color="#E3EA8F"/>
<stop offset="1" stop-color="#62AA1B"/>
</linearGradient>
<linearGradient id="paint1_linear_73_2756" x1="37.0435" y1="12.1065" x2="37.0435" y2="62.0074" gradientUnits="userSpaceOnUse">
<stop stop-color="#E3EA8F"/>
<stop offset="1" stop-color="#62AA1B"/>
</linearGradient>
</defs>
</svg>
