<svg width="86" height="28" viewBox="0 0 86 28" fill="none" xmlns="http://www.w3.org/2000/svg">
<ellipse cx="7.511" cy="7.51134" rx="7.51197" ry="7.51134" fill="url(#paint0_linear_59_2430)"/>
<path d="M16.7383 5.4668C22.8321 5.4668 27.7918 10.3028 27.9961 16.3457C27.795 12.6482 24.7338 9.71191 20.9854 9.71191C17.1069 9.71194 13.9629 12.8557 13.9629 16.7334C13.9631 20.6109 17.1071 23.7539 20.9854 23.7539C24.7339 23.7539 27.7951 20.8178 27.9961 17.1201C27.792 23.1632 22.8322 28 16.7383 28C10.5149 27.9999 5.4699 22.9556 5.46973 16.7334C5.46973 10.5111 10.5148 5.46686 16.7383 5.4668Z" fill="url(#paint1_linear_59_2430)"/>
<path d="M78.1627 21.9621L80.0667 17.6081L76.9727 10.5801H79.1007L81.0887 15.2281L83.0207 10.5801H85.1207L80.2627 21.9621H78.1627Z" fill="white"/>
<path d="M76.4908 12.3161C76.2388 12.2134 75.9635 12.1387 75.6648 12.0921C75.3662 12.0361 75.0488 12.0361 74.7128 12.0921C74.4982 12.1294 74.2882 12.2041 74.0828 12.3161C73.8775 12.4281 73.7142 12.5681 73.5928 12.7361V18.0001H71.4648V10.5801H73.3688V11.4761C73.5275 11.1681 73.7562 10.9254 74.0548 10.7481C74.3628 10.5614 74.6755 10.4447 74.9928 10.3981C75.1608 10.3794 75.3335 10.3747 75.5108 10.3841C75.6975 10.3841 75.8795 10.3981 76.0568 10.4261C76.2342 10.4541 76.4022 10.4961 76.5608 10.5521C76.7195 10.5987 76.8548 10.6547 76.9668 10.7201L76.4908 12.3161Z" fill="white"/>
<path d="M64.2494 14.2901C64.2494 14.9995 64.4174 15.5501 64.7534 15.9421C65.0987 16.3341 65.5561 16.5301 66.1254 16.5301C66.6947 16.5301 67.1521 16.3341 67.4974 15.9421C67.8521 15.5501 68.0294 14.9995 68.0294 14.2901C68.0294 13.5808 67.8521 13.0301 67.4974 12.6381C67.1521 12.2461 66.6947 12.0501 66.1254 12.0501C65.5561 12.0501 65.0987 12.2461 64.7534 12.6381C64.4174 13.0301 64.2494 13.5808 64.2494 14.2901ZM62.1494 14.2901C62.1494 13.6928 62.2427 13.1561 62.4294 12.6801C62.6254 12.1948 62.8961 11.7841 63.2414 11.4481C63.5961 11.1028 64.0161 10.8368 64.5014 10.6501C64.9867 10.4635 65.5281 10.3701 66.1254 10.3701C66.7227 10.3701 67.2641 10.4635 67.7494 10.6501C68.2441 10.8368 68.6641 11.1028 69.0094 11.4481C69.3641 11.7841 69.6394 12.1948 69.8354 12.6801C70.0314 13.1561 70.1294 13.6928 70.1294 14.2901C70.1294 14.8875 70.0314 15.4288 69.8354 15.9141C69.6394 16.3901 69.3641 16.8008 69.0094 17.1461C68.6641 17.4821 68.2441 17.7435 67.7494 17.9301C67.2641 18.1168 66.7227 18.2101 66.1254 18.2101C65.5281 18.2101 64.9867 18.1168 64.5014 17.9301C64.0161 17.7435 63.5961 17.4821 63.2414 17.1461C62.8961 16.8008 62.6254 16.3901 62.4294 15.9141C62.2427 15.4288 62.1494 14.8875 62.1494 14.2901Z" fill="white"/>
<path d="M56.8199 18.0001L53.9219 10.5801H55.9379L57.8559 15.8721L59.7739 10.5801H61.7899L58.8919 18.0001H56.8199Z" fill="white"/>
<path d="M51.316 18.0001V17.2581C51.064 17.5475 50.7467 17.7808 50.364 17.9581C49.9907 18.1261 49.5754 18.2101 49.118 18.2101C48.2034 18.2101 47.5034 17.9861 47.018 17.5381C46.5327 17.0901 46.29 16.4741 46.29 15.6901C46.29 15.2421 46.3787 14.8595 46.556 14.5421C46.7334 14.2248 46.976 13.9681 47.284 13.7721C47.6014 13.5668 47.97 13.4175 48.39 13.3241C48.8194 13.2214 49.2814 13.1608 49.776 13.1421L51.106 13.1001C51.0594 12.6615 50.9194 12.3535 50.686 12.1761C50.4527 11.9988 50.1587 11.9101 49.804 11.9101C49.3094 11.9101 48.8567 11.9801 48.446 12.1201C48.0447 12.2601 47.6807 12.4375 47.354 12.6521L46.668 11.2101C47.0227 10.9675 47.4707 10.7668 48.012 10.6081C48.5627 10.4495 49.1927 10.3701 49.902 10.3701C50.3967 10.3701 50.8494 10.4261 51.26 10.5381C51.6707 10.6501 52.0207 10.8181 52.31 11.0421C52.5994 11.2661 52.8234 11.5461 52.982 11.8821C53.1407 12.2181 53.22 12.6101 53.22 13.0581V18.0001H51.316ZM49.44 16.6141C49.7387 16.6141 50.0327 16.5581 50.322 16.4461C50.6114 16.3341 50.8774 16.1708 51.12 15.9561V14.6401L49.86 14.6961C49.3934 14.7148 49.0294 14.8221 48.768 15.0181C48.516 15.2048 48.39 15.4521 48.39 15.7601C48.39 16.0308 48.4834 16.2408 48.67 16.3901C48.8567 16.5395 49.1134 16.6141 49.44 16.6141Z" fill="white"/>
<path d="M40.1 9.38996V12.19H45.378V13.87H40.1V18H38V7.70996H45.658V9.38996H40.1Z" fill="white"/>
<defs>
<linearGradient id="paint0_linear_59_2430" x1="7.511" y1="0" x2="7.511" y2="15.0227" gradientUnits="userSpaceOnUse">
<stop stop-color="#E3EA8F"/>
<stop offset="1" stop-color="#62AA1B"/>
</linearGradient>
<linearGradient id="paint1_linear_59_2430" x1="16.7329" y1="5.4668" x2="16.7329" y2="28" gradientUnits="userSpaceOnUse">
<stop stop-color="#E3EA8F"/>
<stop offset="1" stop-color="#62AA1B"/>
</linearGradient>
</defs>
</svg>
