<svg width="136" height="41" viewBox="0 0 136 41" fill="none" xmlns="http://www.w3.org/2000/svg">
<ellipse cx="10.9963" cy="11" rx="10.9963" ry="11" fill="url(#paint0_linear_59_2093)"/>
<path d="M24.5049 8.00586C33.6149 8.00601 40.9999 15.3927 41 24.5049C41 33.6172 33.615 41.0047 24.5049 41.0049C15.3946 41.0049 8.00879 33.6173 8.00879 24.5049C8.00887 15.3926 15.3947 8.00586 24.5049 8.00586ZM30.7207 14.2227C25.0433 14.2227 20.4404 18.8262 20.4404 24.5049C20.4404 30.1836 25.0433 34.7871 30.7207 34.7871C36.3979 34.7869 41 30.1835 41 24.5049C41 18.8263 36.3979 14.2229 30.7207 14.2227Z" fill="url(#paint1_linear_59_2093)"/>
<path d="M123.851 35.4322L127.115 27.9682L121.811 15.9202H125.459L128.867 23.8882L132.179 15.9202H135.779L127.451 35.4322H123.851Z" fill="white"/>
<path d="M120.985 18.8962C120.553 18.7202 120.081 18.5922 119.569 18.5122C119.057 18.4162 118.513 18.4162 117.937 18.5122C117.569 18.5762 117.209 18.7042 116.857 18.8962C116.505 19.0882 116.225 19.3282 116.017 19.6162V28.6402H112.369V15.9202H115.633V17.4562C115.905 16.9282 116.297 16.5122 116.809 16.2082C117.337 15.8882 117.873 15.6882 118.417 15.6082C118.705 15.5762 119.001 15.5682 119.305 15.5842C119.625 15.5842 119.937 15.6082 120.241 15.6562C120.545 15.7042 120.833 15.7762 121.105 15.8722C121.377 15.9522 121.609 16.0482 121.801 16.1602L120.985 18.8962Z" fill="white"/>
<path d="M100 22.2801C100 23.4961 100.288 24.4401 100.864 25.1121C101.456 25.7841 102.24 26.1201 103.216 26.1201C104.192 26.1201 104.976 25.7841 105.568 25.1121C106.176 24.4401 106.48 23.4961 106.48 22.2801C106.48 21.0641 106.176 20.1201 105.568 19.4481C104.976 18.7761 104.192 18.4401 103.216 18.4401C102.24 18.4401 101.456 18.7761 100.864 19.4481C100.288 20.1201 100 21.0641 100 22.2801ZM96.4004 22.2801C96.4004 21.2561 96.5604 20.3361 96.8804 19.5201C97.2164 18.6881 97.6804 17.9841 98.2724 17.4081C98.8804 16.8161 99.6004 16.3601 100.432 16.0401C101.264 15.7201 102.192 15.5601 103.216 15.5601C104.24 15.5601 105.168 15.7201 106 16.0401C106.848 16.3601 107.568 16.8161 108.16 17.4081C108.768 17.9841 109.24 18.6881 109.576 19.5201C109.912 20.3361 110.08 21.2561 110.08 22.2801C110.08 23.3041 109.912 24.2321 109.576 25.0641C109.24 25.8801 108.768 26.5841 108.16 27.1761C107.568 27.7521 106.848 28.2001 106 28.5201C105.168 28.8401 104.24 29.0001 103.216 29.0001C102.192 29.0001 101.264 28.8401 100.432 28.5201C99.6004 28.2001 98.8804 27.7521 98.2724 27.1761C97.6804 26.5841 97.2164 25.8801 96.8804 25.0641C96.5604 24.2321 96.4004 23.3041 96.4004 22.2801Z" fill="white"/>
<path d="M87.2629 28.6402L82.2949 15.9202H85.7509L89.0389 24.9922L92.3269 15.9202H95.7829L90.8149 28.6402H87.2629Z" fill="white"/>
<path d="M77.8289 28.6401V27.3681C77.3969 27.8641 76.8529 28.2641 76.1969 28.5681C75.5569 28.8561 74.8449 29.0001 74.0609 29.0001C72.4929 29.0001 71.2929 28.6161 70.4609 27.8481C69.6289 27.0801 69.2129 26.0241 69.2129 24.6801C69.2129 23.9121 69.3649 23.2561 69.6689 22.7121C69.9729 22.1681 70.3889 21.7281 70.9169 21.3921C71.4609 21.0401 72.0929 20.7841 72.8129 20.6241C73.5489 20.4481 74.3409 20.3441 75.1889 20.3121L77.4689 20.2401C77.3889 19.4881 77.1489 18.9601 76.7489 18.6561C76.3489 18.3521 75.8449 18.2001 75.2369 18.2001C74.3889 18.2001 73.6129 18.3201 72.9089 18.5601C72.2209 18.8001 71.5969 19.1041 71.0369 19.4721L69.8609 17.0001C70.4689 16.5841 71.2369 16.2401 72.1649 15.9681C73.1089 15.6961 74.1889 15.5601 75.4049 15.5601C76.2529 15.5601 77.0289 15.6561 77.7329 15.8481C78.4369 16.0401 79.0369 16.3281 79.5329 16.7121C80.0289 17.0961 80.4129 17.5761 80.6849 18.1521C80.9569 18.7281 81.0929 19.4001 81.0929 20.1681V28.6401H77.8289ZM74.6129 26.2641C75.1249 26.2641 75.6289 26.1681 76.1249 25.9761C76.6209 25.7841 77.0769 25.5041 77.4929 25.1361V22.8801L75.3329 22.9761C74.5329 23.0081 73.9089 23.1921 73.4609 23.5281C73.0289 23.8481 72.8129 24.2721 72.8129 24.8001C72.8129 25.2641 72.9729 25.6241 73.2929 25.8801C73.6129 26.1361 74.0529 26.2641 74.6129 26.2641Z" fill="white"/>
<path d="M58.6 13.88V18.68H67.648V21.56H58.6V28.64H55V11H68.128V13.88H58.6Z" fill="white"/>
<defs>
<linearGradient id="paint0_linear_59_2093" x1="10.9963" y1="0" x2="10.9963" y2="22" gradientUnits="userSpaceOnUse">
<stop stop-color="#E3EA8F"/>
<stop offset="1" stop-color="#62AA1B"/>
</linearGradient>
<linearGradient id="paint1_linear_59_2093" x1="24.5044" y1="8.00586" x2="24.5044" y2="41.0049" gradientUnits="userSpaceOnUse">
<stop stop-color="#E3EA8F"/>
<stop offset="1" stop-color="#62AA1B"/>
</linearGradient>
</defs>
</svg>
