<svg width="112" height="35" viewBox="0 0 112 35" fill="none" xmlns="http://www.w3.org/2000/svg">
<ellipse cx="9.38634" cy="9.39044" rx="9.38731" ry="9.39044" fill="url(#paint0_linear_59_2353)"/>
<path d="M20.918 6.83423C28.6688 6.83423 34.9555 13.0975 34.998 20.8401C34.9556 16.0287 31.0449 12.1418 26.2246 12.1418C21.3781 12.142 17.4492 16.0715 17.4492 20.9192C17.4493 25.7668 21.3781 29.6964 26.2246 29.6965C31.0455 29.6965 34.9566 25.8086 34.998 20.9963C34.9565 28.7399 28.6694 35.0042 20.918 35.0042C13.1409 35.004 6.83594 28.6981 6.83594 20.9192C6.83594 13.1402 13.1409 6.83436 20.918 6.83423Z" fill="url(#paint1_linear_59_2353)"/>
<path d="M101.375 28.6599L104.095 22.4399L99.6748 12.3999H102.715L105.555 19.0399L108.315 12.3999H111.315L104.375 28.6599H101.375Z" fill="white"/>
<path d="M98.9876 14.8799C98.6276 14.7333 98.2343 14.6266 97.8076 14.5599C97.381 14.4799 96.9276 14.4799 96.4476 14.5599C96.141 14.6133 95.841 14.7199 95.5476 14.8799C95.2543 15.0399 95.021 15.2399 94.8476 15.4799V22.9999H91.8076V12.3999H94.5276V13.6799C94.7543 13.2399 95.081 12.8933 95.5076 12.6399C95.9476 12.3733 96.3943 12.2066 96.8476 12.1399C97.0876 12.1133 97.3343 12.1066 97.5876 12.1199C97.8543 12.1199 98.1143 12.1399 98.3676 12.1799C98.621 12.2199 98.861 12.2799 99.0876 12.3599C99.3143 12.4266 99.5076 12.5066 99.6676 12.5999L98.9876 14.8799Z" fill="white"/>
<path d="M81.5 17.7001C81.5 18.7134 81.74 19.5001 82.22 20.0601C82.7133 20.6201 83.3667 20.9001 84.18 20.9001C84.9933 20.9001 85.6467 20.6201 86.14 20.0601C86.6467 19.5001 86.9 18.7134 86.9 17.7001C86.9 16.6868 86.6467 15.9001 86.14 15.3401C85.6467 14.7801 84.9933 14.5001 84.18 14.5001C83.3667 14.5001 82.7133 14.7801 82.22 15.3401C81.74 15.9001 81.5 16.6868 81.5 17.7001ZM78.5 17.7001C78.5 16.8468 78.6333 16.0801 78.9 15.4001C79.18 14.7068 79.5667 14.1201 80.06 13.6401C80.5667 13.1468 81.1667 12.7668 81.86 12.5001C82.5533 12.2334 83.3267 12.1001 84.18 12.1001C85.0333 12.1001 85.8067 12.2334 86.5 12.5001C87.2067 12.7668 87.8067 13.1468 88.3 13.6401C88.8067 14.1201 89.2 14.7068 89.48 15.4001C89.76 16.0801 89.9 16.8468 89.9 17.7001C89.9 18.5534 89.76 19.3268 89.48 20.0201C89.2 20.7001 88.8067 21.2868 88.3 21.7801C87.8067 22.2601 87.2067 22.6334 86.5 22.9001C85.8067 23.1668 85.0333 23.3001 84.18 23.3001C83.3267 23.3001 82.5533 23.1668 81.86 22.9001C81.1667 22.6334 80.5667 22.2601 80.06 21.7801C79.5667 21.2868 79.18 20.7001 78.9 20.0201C78.6333 19.3268 78.5 18.5534 78.5 17.7001Z" fill="white"/>
<path d="M70.8851 22.9999L66.7451 12.3999H69.6251L72.3651 19.9599L75.1051 12.3999H77.9851L73.8451 22.9999H70.8851Z" fill="white"/>
<path d="M63.0237 23.0001V21.9401C62.6637 22.3534 62.2104 22.6868 61.6638 22.9401C61.1304 23.1801 60.5371 23.3001 59.8837 23.3001C58.5771 23.3001 57.5771 22.9801 56.8837 22.3401C56.1904 21.7001 55.8438 20.8201 55.8438 19.7001C55.8438 19.0601 55.9704 18.5134 56.2238 18.0601C56.4771 17.6068 56.8238 17.2401 57.2638 16.9601C57.7171 16.6668 58.2438 16.4534 58.8438 16.3201C59.4571 16.1734 60.1171 16.0868 60.8238 16.0601L62.7238 16.0001C62.6571 15.3734 62.4571 14.9334 62.1237 14.6801C61.7904 14.4268 61.3704 14.3001 60.8637 14.3001C60.1571 14.3001 59.5104 14.4001 58.9238 14.6001C58.3504 14.8001 57.8304 15.0534 57.3637 15.3601L56.3837 13.3001C56.8904 12.9534 57.5304 12.6668 58.3038 12.4401C59.0904 12.2134 59.9904 12.1001 61.0038 12.1001C61.7104 12.1001 62.3571 12.1801 62.9437 12.3401C63.5304 12.5001 64.0304 12.7401 64.4438 13.0601C64.8571 13.3801 65.1771 13.7801 65.4038 14.2601C65.6304 14.7401 65.7438 15.3001 65.7438 15.9401V23.0001H63.0237ZM60.3438 21.0201C60.7704 21.0201 61.1904 20.9401 61.6037 20.7801C62.0171 20.6201 62.3971 20.3868 62.7438 20.0801V18.2001L60.9437 18.2801C60.2771 18.3068 59.7571 18.4601 59.3837 18.7401C59.0238 19.0068 58.8438 19.3601 58.8438 19.8001C58.8438 20.1868 58.9771 20.4868 59.2438 20.7001C59.5104 20.9134 59.8771 21.0201 60.3438 21.0201Z" fill="white"/>
<path d="M47 10.7V14.7H54.54V17.1H47V23H44V8.30005H54.94V10.7H47Z" fill="white"/>
<defs>
<linearGradient id="paint0_linear_59_2353" x1="9.38634" y1="0" x2="9.38634" y2="18.7809" gradientUnits="userSpaceOnUse">
<stop stop-color="#E3EA8F"/>
<stop offset="1" stop-color="#62AA1B"/>
</linearGradient>
<linearGradient id="paint1_linear_59_2353" x1="20.917" y1="6.83423" x2="20.917" y2="35.0042" gradientUnits="userSpaceOnUse">
<stop stop-color="#E3EA8F"/>
<stop offset="1" stop-color="#62AA1B"/>
</linearGradient>
</defs>
</svg>
