<svg width="86" height="28" viewBox="0 0 86 28" fill="none" xmlns="http://www.w3.org/2000/svg">
<circle cx="7.5" cy="7.5" r="7.5" fill="url(#paint0_linear_383_8083)"/>
<path d="M17.5 5C23.8513 5 29 10.1487 29 16.5C29 16.5829 28.9949 16.6655 28.9932 16.748C28.8605 12.9988 25.7816 10 22 10C18.134 10 15 13.134 15 17C15 20.866 18.134 24 22 24C25.2602 24 27.9988 21.7709 28.7773 18.7539C27.7296 24.0258 23.0798 28 17.5 28C11.1487 28 6 22.8513 6 16.5C6 10.1487 11.1487 5 17.5 5Z" fill="url(#paint1_linear_383_8083)"/>
<path d="M40.01 10.39V13.19H45.288V14.87H40.01V19H37.91V8.71H45.568V10.39H40.01ZM51.2266 19V18.258C50.9746 18.5473 50.6573 18.7807 50.2746 18.958C49.9013 19.126 49.486 19.21 49.0286 19.21C48.114 19.21 47.414 18.986 46.9286 18.538C46.4433 18.09 46.2006 17.474 46.2006 16.69C46.2006 16.242 46.2893 15.8593 46.4666 15.542C46.644 15.2247 46.8866 14.968 47.1946 14.772C47.512 14.5667 47.8806 14.4173 48.3006 14.324C48.73 14.2213 49.192 14.1607 49.6866 14.142L51.0166 14.1C50.97 13.6613 50.83 13.3533 50.5966 13.176C50.3633 12.9987 50.0693 12.91 49.7146 12.91C49.22 12.91 48.7673 12.98 48.3566 13.12C47.9553 13.26 47.5913 13.4373 47.2646 13.652L46.5786 12.21C46.9333 11.9673 47.3813 11.7667 47.9226 11.608C48.4733 11.4493 49.1033 11.37 49.8126 11.37C50.3073 11.37 50.76 11.426 51.1706 11.538C51.5813 11.65 51.9313 11.818 52.2206 12.042C52.51 12.266 52.734 12.546 52.8926 12.882C53.0513 13.218 53.1306 13.61 53.1306 14.058V19H51.2266ZM49.3506 17.614C49.6493 17.614 49.9433 17.558 50.2326 17.446C50.522 17.334 50.788 17.1707 51.0306 16.956V15.64L49.7706 15.696C49.304 15.7147 48.94 15.822 48.6786 16.018C48.4266 16.2047 48.3006 16.452 48.3006 16.76C48.3006 17.0307 48.394 17.2407 48.5806 17.39C48.7673 17.5393 49.024 17.614 49.3506 17.614ZM56.7297 19L53.8317 11.58H55.8477L57.7657 16.872L59.6837 11.58H61.6997L58.8017 19H56.7297ZM64.16 15.29C64.16 15.9993 64.328 16.55 64.664 16.942C65.0093 17.334 65.4667 17.53 66.036 17.53C66.6053 17.53 67.0627 17.334 67.408 16.942C67.7627 16.55 67.94 15.9993 67.94 15.29C67.94 14.5807 67.7627 14.03 67.408 13.638C67.0627 13.246 66.6053 13.05 66.036 13.05C65.4667 13.05 65.0093 13.246 64.664 13.638C64.328 14.03 64.16 14.5807 64.16 15.29ZM62.06 15.29C62.06 14.6927 62.1533 14.156 62.34 13.68C62.536 13.1947 62.8067 12.784 63.152 12.448C63.5067 12.1027 63.9267 11.8367 64.412 11.65C64.8973 11.4633 65.4387 11.37 66.036 11.37C66.6333 11.37 67.1747 11.4633 67.66 11.65C68.1547 11.8367 68.5747 12.1027 68.92 12.448C69.2747 12.784 69.55 13.1947 69.746 13.68C69.942 14.156 70.04 14.6927 70.04 15.29C70.04 15.8873 69.942 16.4287 69.746 16.914C69.55 17.39 69.2747 17.8007 68.92 18.146C68.5747 18.482 68.1547 18.7433 67.66 18.93C67.1747 19.1167 66.6333 19.21 66.036 19.21C65.4387 19.21 64.8973 19.1167 64.412 18.93C63.9267 18.7433 63.5067 18.482 63.152 18.146C62.8067 17.8007 62.536 17.39 62.34 16.914C62.1533 16.4287 62.06 15.8873 62.06 15.29ZM76.4015 13.316C76.1495 13.2133 75.8741 13.1387 75.5755 13.092C75.2768 13.036 74.9595 13.036 74.6235 13.092C74.4088 13.1293 74.1988 13.204 73.9935 13.316C73.7881 13.428 73.6248 13.568 73.5035 13.736V19H71.3755V11.58H73.2795V12.476C73.4381 12.168 73.6668 11.9253 73.9655 11.748C74.2735 11.5613 74.5861 11.4447 74.9035 11.398C75.0715 11.3793 75.2441 11.3747 75.4215 11.384C75.6081 11.384 75.7901 11.398 75.9675 11.426C76.1448 11.454 76.3128 11.496 76.4715 11.552C76.6301 11.5987 76.7655 11.6547 76.8775 11.72L76.4015 13.316ZM78.0725 22.962L79.9765 18.608L76.8825 11.58H79.0105L80.9985 16.228L82.9305 11.58H85.0305L80.1725 22.962H78.0725Z" fill="#1F4B2C"/>
<defs>
<linearGradient id="paint0_linear_383_8083" x1="7.5" y1="0" x2="7.5" y2="15" gradientUnits="userSpaceOnUse">
<stop stop-color="#E3EA8F"/>
<stop offset="1" stop-color="#62AA1B"/>
</linearGradient>
<linearGradient id="paint1_linear_383_8083" x1="16.7339" y1="5.4668" x2="16.7339" y2="28" gradientUnits="userSpaceOnUse">
<stop stop-color="#E3EA8F"/>
<stop offset="1" stop-color="#62AA1B"/>
</linearGradient>
</defs>
</svg>
