<svg width="1920" height="458" viewBox="0 0 1920 458" fill="none" xmlns="http://www.w3.org/2000/svg">
<mask id="mask0_355_8624" style="mask-type:alpha" maskUnits="userSpaceOnUse" x="0" y="0" width="1920" height="458">
<rect width="1920" height="458" fill="url(#paint0_linear_355_8624)"/>
</mask>
<g mask="url(#mask0_355_8624)">
<path d="M523.749 272.275C384.69 248.389 82.5707 230.337 -5.665 236.328C-93.9007 242.319 -5.665 458 -5.665 458H1953.17C1953.17 458 2054.31 238.742 1953.17 290.248C1852.02 341.755 1734.36 333.985 1635.52 326.195C1536.68 318.405 1406.25 277.916 1264.93 230.337C1123.61 182.758 888.181 194.781 814.927 230.337C741.673 265.893 662.808 296.161 523.749 272.275Z" fill="#D9D9D9" fill-opacity="0.15"/>
<path d="M1608.07 370.169C1713.49 358.874 1942.51 350.337 2009.39 353.17C2076.28 356.003 2009.39 458 2009.39 458H-183.045C-183.045 458 -242.285 284.992 -165.615 309.35C-88.9446 333.708 690.379 399.352 765.304 395.669C840.228 391.985 939.1 372.837 1046.23 350.337C1153.35 327.836 1331.82 333.522 1387.35 350.337C1442.88 367.152 1502.66 381.465 1608.07 370.169Z" fill="#D9D9D9" fill-opacity="0.15"/>
</g>
<defs>
<linearGradient id="paint0_linear_355_8624" x1="960" y1="0" x2="960" y2="458" gradientUnits="userSpaceOnUse">
<stop stop-color="#1F4B2C"/>
<stop offset="0.25" stop-color="#076653"/>
<stop offset="1" stop-color="#E3EA8F"/>
</linearGradient>
</defs>
</svg>
